<svg xmlns="http://www.w3.org/2000/svg" viewBox="0 -6 42.181 53.67125" x="0px" y="0px"><g data-name="Layer 2"><g data-name="Layer 1"><g data-name="24/7"><path d="M42.181,20.724A20.776,20.776,0,0,0,19.534.093a.662.662,0,0,0-.58.715.666.666,0,0,0,.706.579,19.421,19.421,0,0,1,3.81,38.655l-.008-1.583L19.6,40.7l3.869,2.239V41.316A20.739,20.739,0,0,0,42.181,20.724Z"/><path d="M15.134,1.02a9.283,9.283,0,0,0-1.94.213c-.018,0-.038.018-.057.018C-4.383,7.31-4.382,34.158,13.156,40.2h.038c2.018.57,4.417.172,4.515-2.354V32.825a2.579,2.579,0,0,0-2.575-2.568h-1.94A4.209,4.209,0,0,1,9,26.05V14.76a3.526,3.526,0,0,1,4.111-3.569h2.027A2.583,2.583,0,0,0,17.709,8.6V3.587A2.579,2.579,0,0,0,15.134,1.02Zm1.3,31.805v5.017c-.034,1.411-1.56,1.411-2.605,1.178V31.532h1.3A1.3,1.3,0,0,1,16.437,32.825ZM9.354,11.035a4.869,4.869,0,0,0-1.64,3.725V26.05a5.5,5.5,0,0,0,4.844,5.443v7.2a8.183,8.183,0,0,1-1.168-.5c-14-7.722-13.441-28.829,1.168-35.453V9.859A4.832,4.832,0,0,0,9.354,11.035ZM16.437,8.6a1.3,1.3,0,0,1-1.3,1.293h-1.3V2.409c1.065-.206,2.551-.264,2.605,1.178Z"/><path d="M22.255,22.963,28.3,29.408a.639.639,0,0,0,.937-.868L23.2,22.094a2.579,2.579,0,0,0-.974-3.629l2.642-11.25a.643.643,0,0,0-1.253-.291L20.982,18.157C16.747,18.572,18.4,24.74,22.255,22.963Zm-2.5-2.239a1.279,1.279,0,0,1,2.557,0A1.279,1.279,0,0,1,19.757,20.724Z"/></g></g></g></svg>