<svg xmlns="http://www.w3.org/2000/svg" version="1.1" viewBox="-5.0 -10.0 110.0 135.0">
 <path d="m73.852 68.414c-2.9688-2.9688-7.6211-3.4258-11.113-1.0938-3.4922 2.332-4.8477 6.8047-3.2422 10.684 1.6094 3.8789 5.7305 6.082 9.8477 5.2656 4.1172-0.82031 7.0859-4.4375 7.082-8.6328 0-2.3359-0.92578-4.5703-2.5742-6.2227zm-6.2188-5.375c5.293 0 9.9141 3.582 11.23 8.7109 1.3164 5.125-1.0039 10.492-5.6406 13.043-4.6406 2.5508-10.414 1.6367-14.039-2.2227-3.6211-3.8594-4.1719-9.6836-1.3359-14.148 2.1289-3.3516 5.8164-5.3789 9.7852-5.3828zm-1.3984 5.8984-0.003906 0.003906c0-0.77344 0.62891-1.4023 1.4023-1.4023 0.77344 0 1.3984 0.62891 1.3984 1.4023v0.19922c0.88281 0.27344 1.6367 0.86328 2.1172 1.6523 0.21875 0.32031 0.29687 0.71484 0.21094 1.0938-0.082031 0.37891-0.32031 0.70703-0.65234 0.90625-0.33594 0.19531-0.73438 0.24609-1.1094 0.13672-0.37109-0.10938-0.67969-0.36719-0.85547-0.71484-0.46875-0.79297-2.0234-0.51172-2.0234 0.27734 0 0.48828 0.41016 0.75391 0.90625 0.75391v-0.003906c1.4883-0.085938 2.8672 0.78125 3.4375 2.1602 0.56641 1.3789 0.19922 2.9648-0.91406 3.9531-0.33203 0.28906-0.71094 0.51953-1.1172 0.68359v0.30078c0 0.77344-0.625 1.3984-1.3984 1.3984-0.77344 0-1.4023-0.625-1.4023-1.3984v-0.19922c-0.88281-0.27734-1.6328-0.86328-2.1133-1.6523-0.33203-0.66016-0.097657-1.4609 0.53906-1.8359 0.63281-0.375 1.4492-0.19141 1.8633 0.41406 0.46875 0.79297 2.0234 0.51172 2.0234-0.27344 0-0.49219-0.41797-0.74609-0.92188-0.74609h0.003906c-1.4883 0.078125-2.8672-0.78906-3.4297-2.1719-0.56641-1.3789-0.19531-2.9648 0.92188-3.9492 0.33203-0.28906 0.70703-0.51953 1.1133-0.68359v-0.30078zm-37.469-33.73-4.4141 0.003907v4.7266h4.4102v-4.7305zm-5.8125-2.8008h7.2109l-0.003906 0.003906c0.77344 0 1.4023 0.62891 1.4023 1.4023v7.5234c0 0.77344-0.62891 1.3984-1.4023 1.3984h-7.2109c-0.76953 0-1.3984-0.625-1.3984-1.3984v-7.5273c0-0.77344 0.62891-1.3984 1.3984-1.3984zm11.602 3.6797-0.003907 0.003906c-0.77344 0-1.3984-0.625-1.3984-1.3984 0-0.77344 0.625-1.4023 1.3984-1.4023h16.301c0.77344 0 1.3984 0.62891 1.3984 1.4023 0 0.77344-0.625 1.3984-1.3984 1.3984zm0 5.7656-0.003907 0.003907c-0.77344 0-1.3984-0.62891-1.3984-1.4023s0.625-1.3984 1.3984-1.3984h20.137c0.77344 0 1.4023 0.625 1.4023 1.3984s-0.62891 1.4023-1.4023 1.4023zm-5.793-22.141h-4.4102v4.7266h4.4102zm-5.8125-2.8008h7.2109c0.77344 0 1.4023 0.625 1.4023 1.3984v7.5273c0 0.77344-0.62891 1.3984-1.4023 1.3984h-7.2109c-0.76953 0-1.3984-0.625-1.3984-1.3984v-7.5273c0-0.77344 0.62891-1.3984 1.3984-1.3984zm11.602 3.6797c-0.77344 0-1.3984-0.62891-1.3984-1.4023s0.625-1.3984 1.3984-1.3984h16.301c0.77344 0 1.3984 0.625 1.3984 1.3984s-0.625 1.4023-1.3984 1.4023zm0 5.7656v-0.003907c-0.77344 0-1.3984-0.625-1.3984-1.3984s0.625-1.3984 1.3984-1.3984h20.137c0.77344 0 1.4023 0.625 1.4023 1.3984s-0.62891 1.3984-1.4023 1.3984zm34.172 13.145v-7.0508c0-0.76953 0.62891-1.3984 1.4023-1.3984 4.6641 0 8.4492 3.7812 8.4492 8.4492 0 0.77344-0.62891 1.3984-1.3984 1.3984h-7.0547c-0.76953 0-1.3984-0.625-1.3984-1.3984zm2.8008-5.4766v4.0781h4.0781c-0.51562-2.0039-2.0781-3.5664-4.082-4.082zm-6.6562 9.3398v-5.4766c-1.9688 0.5-3.5156 2.0234-4.0508 3.9805-0.53906 1.957 0.015625 4.0547 1.4531 5.4922 1.4336 1.4375 3.5312 1.9922 5.4922 1.4531 1.957-0.53516 3.4766-2.082 3.9805-4.0508h-5.4805c-0.77344 0-1.3984-0.625-1.3984-1.3984zm2.8008-7.0508-0.003907-0.003906c0-0.77344-0.625-1.4023-1.3984-1.4023-3.418 0-6.5 2.0625-7.8086 5.2188-1.3086 3.1562-0.58203 6.793 1.832 9.2109 2.418 2.4141 6.0547 3.1406 9.2109 1.832 3.1562-1.3086 5.2188-4.3906 5.2188-7.8086 0-0.77344-0.62891-1.3984-1.4023-1.3984h-5.6562v-5.6484zm-37.781 40.266h-3.3008v6.8555h3.3008zm-4.6992-2.8008h6.1016-0.003906c0.77344 0 1.4023 0.625 1.4023 1.3984v9.6523c0 0.77344-0.62891 1.4023-1.4023 1.4023h-6.1016 0.003906c-0.77344 0-1.4023-0.62891-1.4023-1.4023v-9.6523c0-0.77344 0.62891-1.3984 1.4023-1.3984zm15.523-0.44141h-3.3008v10.094h3.3008zm-4.6992-2.8008h6.1016c0.77344 0 1.3984 0.62891 1.3984 1.4023v12.891c0 0.77344-0.625 1.4023-1.3984 1.4023h-6.1016c-0.77344 0-1.3984-0.62891-1.3984-1.4023v-12.891c0-0.77344 0.625-1.3984 1.3984-1.3984zm15.523-5.6836h-3.3008l0.003906 18.578h3.3008l-0.003906-18.574zm-4.6992-2.8008v0.003907c-0.77344 0-1.3984 0.62891-1.3984 1.3984v21.375c0 0.77344 0.625 1.4023 1.3984 1.4023h6.1016c0.77344 0 1.3984-0.62891 1.3984-1.4023v-21.371c0-0.77344-0.625-1.3984-1.3984-1.3984zm-22.562 6.8281 9.7812-7.2852 3.6328 2.707c0.50391 0.37109 1.1914 0.36328 1.6875-0.019531l14.535-10.824c0.33203-0.20703 0.5625-0.54297 0.63672-0.92969 0.074219-0.38281-0.015625-0.78125-0.25-1.0977-0.23438-0.3125-0.58594-0.51563-0.97656-0.55859-0.39062-0.039063-0.78125 0.085937-1.0742 0.34375l-13.727 10.223-3.6094-2.6836c-0.49609-0.38281-1.1836-0.39062-1.6875-0.019531l-10.613 7.8984c-0.59766 0.46484-0.71875 1.3242-0.26562 1.9336 0.45312 0.61328 1.3086 0.74609 1.9297 0.30859zm59.535 1.5898v5.8008l-0.003906-0.003906c2.5156 0.070313 5.0234-0.23828 7.4414-0.92188 1.3203-0.42188 2.1367-0.8125 2.1367-1.0742v-5.3594c-3.0547 1.1484-6.3125 1.6797-9.5781 1.5586zm0-8.5898v5.8008l-0.003906-0.003907c2.5156 0.070313 5.0234-0.24219 7.4414-0.92188 1.3242-0.42578 2.1328-0.8125 2.1367-1.0781v-5.3594c-3.0547 1.1523-6.3125 1.6836-9.5781 1.5586zm0-8.5898v5.8008l-0.003906-0.003906c2.5156 0.070312 5.0234-0.24219 7.4414-0.92578 1.3242-0.42578 2.1328-0.8125 2.1367-1.0781v-5.3555c-3.0547 1.1523-6.3125 1.6797-9.5781 1.5586zm0-6.793v4l-0.003906-0.003906c2.5156 0.070312 5.0234-0.23828 7.4414-0.92188 1.3203-0.42187 2.1367-0.8125 2.1367-1.0742 0-0.26172-0.81641-0.65234-2.1367-1.0742-2.418-0.68359-4.9258-0.99609-7.4414-0.92578zm-2.8008-21.438v64.102l-63.031-0.003906v-78.301h50.125v12.812c0 0.77344 0.625 1.3984 1.3984 1.3984zm-1.7617-2.8008-8.3477-9.1914v9.1914zm-64.07 32.078c-2.1719 0.007812-4.3359 0.31641-6.4219 0.91797-1.3203 0.42188-2.1367 0.8125-2.1367 1.0742s0.81641 0.65234 2.1367 1.0742c2.0859 0.60156 4.25 0.91016 6.4219 0.91797zm-8.5586 10.582c0 0.26172 0.81641 0.65234 2.1367 1.0742 2.0859 0.60156 4.25 0.91016 6.4219 0.91797v-5.793c-2.9258 0.023437-5.8281-0.50391-8.5586-1.5547zm0 8.5898c0 0.26172 0.81641 0.65234 2.1367 1.0742 2.0859 0.60156 4.25 0.91016 6.4219 0.91797v-5.7891c-2.9258 0.019531-5.8281-0.50781-8.5586-1.5586zm8.5586 13.383c-2.457-0.015625-4.9062-0.37109-7.2656-1.0625-2.5195-0.80078-4.0938-2.1094-4.0938-3.7305v-25.77c0-1.6211 1.5742-2.9258 4.0938-3.7305v-0.003906c2.3594-0.6875 4.8086-1.0469 7.2656-1.0586v-42.086c0-0.77344 0.62891-1.4023 1.4023-1.4023h52.922c0.42188 0 0.82422 0.19141 1.0898 0.52344l12.801 14.09v-0.003906c0.26953 0.26562 0.41797 0.625 0.41797 1v20.043c2.7969-0.070313 5.5898 0.28906 8.2812 1.0625 2.5195 0.80078 4.0938 2.1094 4.0938 3.7305v25.77c0 1.6211-1.5742 2.9258-4.0938 3.7305v0.003906c-2.6914 0.77344-5.4844 1.1328-8.2852 1.0625v11.492c0 0.77344-0.625 1.4023-1.3984 1.4023h-65.828c-0.77344 0-1.4023-0.62891-1.4023-1.4023zm-8.5586-4.7891c0 0.26953 0.80859 0.65234 2.1367 1.0781 2.0859 0.59766 4.25 0.91016 6.4219 0.91797v-5.7969c-2.9258 0.019531-5.8281-0.50781-8.5586-1.5547z" fill-rule="evenodd"/>
</svg>