<svg xmlns="http://www.w3.org/2000/svg" xmlns:xlink="http://www.w3.org/1999/xlink" version="1.1" x="0px" y="0px" viewBox="0 -10 98 122.5" style="enable-background:new 0 0 98 98;" xml:space="preserve"><path d="M34.033,80.21c0-7.339-4.899-13.552-11.597-15.549c2.3-1.512,3.823-4.114,3.823-7.066c0-4.66-3.791-8.451-8.451-8.451  s-8.451,3.791-8.451,8.451c0,2.952,1.523,5.554,3.823,7.066C6.48,66.659,1.582,72.872,1.582,80.21c0,0.569,0.461,1.031,1.031,1.031  h30.389C33.571,81.241,34.033,80.779,34.033,80.21z M11.418,57.595c0-3.523,2.866-6.389,6.389-6.389s6.389,2.866,6.389,6.389  s-2.866,6.389-6.389,6.389S11.418,61.119,11.418,57.595z M3.68,79.179c0.53-7.331,6.663-13.133,14.127-13.133  c7.463,0,13.597,5.802,14.127,13.133H3.68z M84.821,64.661c2.3-1.512,3.823-4.114,3.823-7.066c0-4.66-3.791-8.451-8.451-8.451  c-4.66,0-8.451,3.791-8.451,8.451c0,2.952,1.523,5.554,3.823,7.066c-6.698,1.998-11.597,8.21-11.597,15.549  c0,0.569,0.461,1.031,1.031,1.031h30.389c0.569,0,1.031-0.462,1.031-1.031C96.418,72.872,91.519,66.659,84.821,64.661z   M73.803,57.595c0-3.523,2.866-6.389,6.389-6.389c3.523,0,6.389,2.866,6.389,6.389s-2.866,6.389-6.389,6.389  C76.67,63.985,73.803,61.119,73.803,57.595z M66.066,79.179c0.53-7.331,6.663-13.133,14.127-13.133  c7.463,0,13.597,5.802,14.127,13.133H66.066z M31.182,33.366c0,0.569,0.461,1.031,1.031,1.031h30.389  c0.569,0,1.031-0.462,1.031-1.031c0-7.339-4.899-13.552-11.597-15.549c2.3-1.512,3.823-4.114,3.823-7.066  c0-4.66-3.791-8.451-8.451-8.451c-4.66,0-8.451,3.791-8.451,8.451c0,2.952,1.523,5.554,3.823,7.066  C36.081,19.814,31.182,26.027,31.182,33.366z M41.018,10.751c0-3.523,2.866-6.389,6.39-6.389c3.523,0,6.389,2.866,6.389,6.389  s-2.866,6.389-6.389,6.389C43.885,17.14,41.018,14.274,41.018,10.751z M47.408,19.202c7.463,0,13.597,5.802,14.127,13.133H33.281  C33.811,25.004,39.945,19.202,47.408,19.202z M10.597,42.625c1.102-5.592,3.492-10.958,6.911-15.518  c2.993-3.991,6.799-7.398,11.095-9.946l-2.065-0.882c-0.523-0.224-0.767-0.829-0.543-1.353c0.224-0.524,0.83-0.766,1.353-0.543  l3.994,1.706c0.211,0.088,0.395,0.247,0.511,0.465c0.006,0.011,0.011,0.021,0.017,0.032c0,0,0.001,0,0,0.001  c0.099,0.202,0.126,0.421,0.09,0.628l-0.681,4.233c-0.09,0.562-0.62,0.944-1.181,0.854c-0.562-0.091-0.944-0.619-0.854-1.182  l0.346-2.149c-8.83,5.238-14.968,13.898-16.97,24.053c-0.097,0.491-0.528,0.832-1.01,0.832c-0.066,0-0.133-0.006-0.201-0.02  C10.85,43.726,10.487,43.184,10.597,42.625z M63.597,17.46c0.183-0.539,0.768-0.828,1.307-0.645  c5.397,1.833,10.4,4.912,14.467,8.905c3.56,3.495,6.433,7.719,8.389,12.314l1.148-1.93c0.291-0.489,0.924-0.65,1.413-0.359  c0.489,0.291,0.65,0.923,0.359,1.413l-2.22,3.734c-0.116,0.199-0.299,0.36-0.531,0.446c-0.009,0.003-0.019,0.007-0.028,0.01  c0,0,0,0,0,0c0,0,0,0-0.001,0c-0.109,0.037-0.22,0.054-0.33,0.054c-0.105,0-0.209-0.016-0.308-0.047l-4.105-1.235  c-0.545-0.164-0.854-0.739-0.69-1.284c0.164-0.545,0.74-0.854,1.284-0.69l2.084,0.627c-4.023-9.446-11.794-16.676-21.595-20.005  C63.703,18.584,63.414,17.999,63.597,17.46z M65.207,88.825c0.266,0.504,0.073,1.127-0.431,1.393  c-5.041,2.659-10.717,4.175-16.413,4.383c-4.986,0.181-10.028-0.635-14.71-2.374l0.613,2.161c0.155,0.548-0.163,1.118-0.711,1.273  c-0.094,0.027-0.189,0.039-0.282,0.039c-0.449,0-0.862-0.296-0.991-0.75l-1.185-4.179c-0.064-0.22-0.056-0.462,0.04-0.689  c0.005-0.011,0.009-0.022,0.014-0.032c0,0-0.001,0.001,0-0.001c0.094-0.204,0.248-0.363,0.431-0.465l3.72-2.132  c0.494-0.283,1.124-0.112,1.407,0.382c0.283,0.494,0.112,1.124-0.382,1.407l-1.888,1.082c9.626,3.573,20.218,2.901,29.373-1.929  C64.317,88.129,64.941,88.321,65.207,88.825z M40.588,66.818c0.393,0.2,0.809,0.299,1.221,0.299c0.547,0,1.088-0.174,1.561-0.517  l3.377-2.45c0.692,1.013,1.853,1.667,3.136,1.667h2.324l5.619,4.077c0.402,0.292,0.862,0.439,1.327,0.439  c0.351,0,0.704-0.084,1.038-0.254c0.776-0.396,1.239-1.152,1.239-2.023v-2.239h1.114c2.094,0,3.797-1.703,3.797-3.797v-8.298  c0-2.094-1.703-3.797-3.797-3.797h-3.771v-4.461c0-2.587-2.105-4.692-4.692-4.692H37.322c-2.587,0-4.692,2.105-4.692,4.692v10.984  c0,2.587,2.105,4.692,4.692,4.692h1.808v3.297C39.13,65.462,39.675,66.352,40.588,66.818z M58.773,56.448v-4.461h3.771  c0.957,0,1.736,0.778,1.736,1.735v8.298c0,0.957-0.779,1.735-1.736,1.735H60.4c-0.569,0-1.031,0.462-1.031,1.031v3.27  c0,0.091-0.033,0.145-0.114,0.186c-0.079,0.041-0.145,0.036-0.217-0.017l-5.89-4.273c-0.176-0.128-0.388-0.197-0.605-0.197h-2.658  c-0.608,0-1.157-0.321-1.469-0.815l2.481-1.8h3.185C56.668,61.14,58.773,59.035,58.773,56.448z M37.322,59.079  c-1.451,0-2.631-1.18-2.631-2.631V45.464c0-1.451,1.18-2.631,2.631-2.631h16.759c1.451,0,2.631,1.18,2.631,2.631v10.984  c0,1.451-1.18,2.631-2.631,2.631h-3.519c-0.217,0-0.429,0.069-0.605,0.197l-7.796,5.656c-0.198,0.144-0.418,0.161-0.636,0.05  c-0.218-0.111-0.333-0.299-0.333-0.544V60.11c0-0.569-0.461-1.031-1.031-1.031H37.322z M50.318,50.956  c0-0.569,0.461-1.031,1.031-1.031h0.821c0.569,0,1.031,0.462,1.031,1.031s-0.461,1.031-1.031,1.031h-0.821  C50.78,51.987,50.318,51.525,50.318,50.956z M40.054,51.987h-0.821c-0.569,0-1.031-0.462-1.031-1.031s0.461-1.031,1.031-1.031h0.821  c0.569,0,1.031,0.462,1.031,1.031S40.624,51.987,40.054,51.987z M44.26,50.956c0-0.569,0.461-1.031,1.031-1.031h0.821  c0.569,0,1.031,0.462,1.031,1.031s-0.461,1.031-1.031,1.031h-0.821C44.722,51.987,44.26,51.525,44.26,50.956z"/></svg>