<svg xmlns="http://www.w3.org/2000/svg" data-name="Layer 1" viewBox="0 -10 100 125" x="0px" y="0px"><defs><style>.cls-1{fill-rule:evenodd;}</style></defs><path class="cls-1" d="M21.674,77.886a1.3,1.3,0,0,1,.057-.207l5.812-21.288a1.472,1.472,0,0,1,.048-.176l.777-2.846H22.12L15.1,79.091h6.249l.329-1.2ZM47.562,61.913l22.3,15.468a2.125,2.125,0,0,1,.9,1.355c.292,1.8-2.16,3.017-3.849,1.878l-11-7.422a1.359,1.359,0,1,0-1.52,2.254l10.852,7.32a2.019,2.019,0,0,1,.895,1.336c.288,1.8-2.153,3.035-3.854,1.888L51.351,78.619a1.359,1.359,0,1,0-1.52,2.254l8.719,5.88a2.018,2.018,0,0,1,.893,1.335c.288,1.8-2.153,3.035-3.854,1.888l-13.1-8.836a1.36,1.36,0,0,0-1.521,2.254l7.622,5.14a2.024,2.024,0,0,1,.891,1.334c.287,1.8-2.153,3.035-3.855,1.887l-21.051-14.2,5.352-19.6,6.412-.421L34.05,59.9a5.1,5.1,0,0,0,.137,7.288,6.064,6.064,0,0,0,8.407-.136l4.968-5.14Zm25.26,14.728,2.222-.484L70.131,58.164a82.712,82.712,0,0,0-17.6-5.115c-4.347-.619-7.546-.354-9.054,1.005l-7.471,7.729c-1.684,1.742-.182,4.472,2.523,4.315a3.179,3.179,0,0,0,2.109-.927l6.708-6.94a1.357,1.357,0,0,1,2.109,1.692L71.4,75.148a4.815,4.815,0,0,1,1.42,1.493Zm5.185.079L71.632,53.369H77.88L84.9,79.091H78.655l-.648-2.371Zm-50.54-59.4a1.359,1.359,0,0,1,.754-1.217L50.078,5.233a1.356,1.356,0,0,1,1.212,0c7.3,3.591,14.572,7.25,21.857,10.874a1.361,1.361,0,0,1,.754,1.217h0v11.8A34.027,34.027,0,0,1,64.063,53.1c1.673.542,3.4,1.15,5.181,1.82l-.664-2.433a1.358,1.358,0,0,1,1.275-1.839h9.059a1.361,1.361,0,0,1,1.34,1.124l7.7,28.2a1.357,1.357,0,0,1-1.275,1.838H77.621v0a1.356,1.356,0,0,1-1.307-1l-.553-2.025-2.272.495a4.918,4.918,0,0,1-4.665,4.47c.512,3.569-3.167,6.23-6.675,5.156-.432,3.646-4.958,5.431-8.081,3.325l-1.919-1.294c-.617,3.5-5.007,5.122-8.043,3.073L23.818,80.325l-.132.484a1.356,1.356,0,0,1-1.307,1v0H13.32a1.357,1.357,0,0,1-1.275-1.838l7.733-28.323a1.356,1.356,0,0,1,1.308-1v-.006h9.059a1.358,1.358,0,0,1,1.275,1.839l-.736,2.694,7.865-.516a1.351,1.351,0,0,1,.46.05A34.089,34.089,0,0,1,27.466,29.127v-11.8Zm38.049,4.968L50.684,14.913,35.852,22.292v7.9A22.814,22.814,0,0,0,39.01,41.819a23.051,23.051,0,0,0,8.331,8.255,27.3,27.3,0,0,1,5.573.285c.155.022.31.045.467.07A22.907,22.907,0,0,0,65.516,30.2v-7.9ZM33.131,21.45h0V30.2A25.611,25.611,0,0,0,43.587,50.857a6.518,6.518,0,0,0-1.953,1.2h0l-.707.728A31.307,31.307,0,0,1,30.188,29.127V18.166l20.5-10.2,20.5,10.2V29.127A31.336,31.336,0,0,1,61.1,52.191c-1.31-.379-2.577-.711-3.793-.994a25.632,25.632,0,0,0,10.927-21V21.45h0a1.362,1.362,0,0,0-.754-1.217c-5.4-2.685-10.786-5.4-16.193-8.056a1.356,1.356,0,0,0-1.212,0L33.885,20.233a1.358,1.358,0,0,0-.754,1.217Zm9.665,12.2,5.859,5.279a1.36,1.36,0,0,0,1.919-.1l8.1-8.988a1.359,1.359,0,0,0-2.02-1.818l-7.188,7.977-4.849-4.369a1.359,1.359,0,1,0-1.819,2.02Z"/></svg>