<svg xmlns="http://www.w3.org/2000/svg" data-name="Layer 1" viewBox="0 -10 100 125" x="0px" y="0px"><defs><style>.cls-1{fill-rule:evenodd;}</style></defs><path class="cls-1" d="M75.311,60.67l-5.1,5.784h0a1.362,1.362,0,0,1-2.007.038l-3.567-3.735-1.8.512,6.434,6.738,8.57-9.729-2.53.393Zm-6.159,2.87,4.435-5.035a1.359,1.359,0,0,1,.918-.459l6.636-1.032a1.36,1.36,0,0,1,1.227,2.239l0,0L70.336,72.92a1.362,1.362,0,0,1-2.063-.02L59.31,63.513a1.361,1.361,0,0,1,.618-2.247h0l4.762-1.353a1.36,1.36,0,0,1,1.389.411l3.073,3.217Zm15.866-8.522a23.538,23.538,0,0,1-3.3,20.736,20.709,20.709,0,0,1-10.9,7.778,20.715,20.715,0,0,1-10.9-7.778,23.444,23.444,0,0,1-4.061-17.507,23.192,23.192,0,0,1,.769-3.235l14.12-8.02,14.27,8.026ZM86.812,52.9a1.357,1.357,0,0,1,.637.791,26.319,26.319,0,0,1,1.371,8.412,25.842,25.842,0,0,1-4.9,15.246,23.412,23.412,0,0,1-12.711,8.9,1.363,1.363,0,0,1-.77,0,23.412,23.412,0,0,1-12.711-8.9,26.211,26.211,0,0,1-3.518-23.7,1.356,1.356,0,0,1,.668-.774l15.132-8.6a1.359,1.359,0,0,1,1.4-.043l15.4,8.662ZM54.094,83.056H17.476a6.358,6.358,0,0,1-6.343-6.343V26.924a6.359,6.359,0,0,1,6.343-6.343h8.79V15.947H12.32A4.861,4.861,0,0,0,7.477,20.79V82.848A4.86,4.86,0,0,0,12.32,87.69H58.638a33.191,33.191,0,0,1-4.544-4.634ZM50.537,20.581V15.947H64.483a4.86,4.86,0,0,1,4.842,4.843V37.02L65.669,39.1V26.924a6.358,6.358,0,0,0-6.342-6.343Zm-9.1-10.028A1.363,1.363,0,0,0,42.8,11.916h5V24.523H28.993V11.916h5a1.363,1.363,0,0,0,1.364-1.363V8.986c0-.12.189-.2.349-.2h5.381c.159,0,.349.084.349.2v1.567ZM32.635,9.189a2.857,2.857,0,0,1,.95-2.311,3.152,3.152,0,0,1,2.126-.823h5.381a3.025,3.025,0,0,1,3.076,2.931v.2h5.005a1.364,1.364,0,0,1,1.364,1.364V13.22H64.483a7.588,7.588,0,0,1,7.569,7.57V36.982L92.734,48.614a1.36,1.36,0,0,1,.637.791,35.947,35.947,0,0,1-4.816,32.339A31.929,31.929,0,0,1,71.206,93.889a1.36,1.36,0,0,1-.769,0,30.7,30.7,0,0,1-8.01-3.472H12.32a7.588,7.588,0,0,1-7.57-7.569V20.79a7.589,7.589,0,0,1,7.57-7.57H26.266V10.553A1.364,1.364,0,0,1,27.63,9.189ZM35.88,37.972a1.364,1.364,0,1,1,0-2.727H56.42a1.364,1.364,0,1,1,0,2.727ZM29.691,73.08a1.364,1.364,0,1,1,1.366-1.364,1.364,1.364,0,0,1-1.366,1.364ZM20.922,34.912h8.771a1.364,1.364,0,0,1,1.364,1.364v8.511a1.364,1.364,0,0,1-1.364,1.363H20.922a1.363,1.363,0,0,1-1.364-1.363V36.276a1.364,1.364,0,0,1,1.364-1.364ZM28.33,37.64v5.783H22.285V37.64ZM20.922,52.666h8.771a1.364,1.364,0,0,1,1.364,1.363V62.54A1.364,1.364,0,0,1,29.693,63.9H20.922a1.364,1.364,0,0,1-1.364-1.364V54.029a1.363,1.363,0,0,1,1.364-1.363Zm7.408,2.727v5.783H22.285V55.393ZM20.973,70.352a1.364,1.364,0,1,1-1.415,1.364,1.364,1.364,0,0,1,1.415-1.364Zm29.764.854A33.714,33.714,0,0,1,49.558,55.48l.209-1.15a32.972,32.972,0,0,1,.937-3.6L57.9,46.64a1.314,1.314,0,0,0,.266-.151l6.725-3.82a1.425,1.425,0,0,0,.182-.1l5.65-3.209L90.942,50.731A33.228,33.228,0,0,1,86.36,80.146,29.23,29.23,0,0,1,70.822,91.169a28.028,28.028,0,0,1-7.206-3.215,1.392,1.392,0,0,0-.165-.1A30.016,30.016,0,0,1,55.9,80.963l-.615-.817a31.909,31.909,0,0,1-4.491-8.769,1.368,1.368,0,0,0-.056-.171ZM35.88,73.08H48.5a34.811,34.811,0,0,0,3.609,7.249H17.476a3.63,3.63,0,0,1-3.616-3.616V26.924a3.63,3.63,0,0,1,3.616-3.616h8.79v2.579A1.363,1.363,0,0,0,27.63,27.25H49.173a1.364,1.364,0,0,0,1.364-1.363V23.308h8.79a3.63,3.63,0,0,1,3.615,3.616V40.645L57,44.022H35.88a1.364,1.364,0,1,0,0,2.727H52.2l-3.243,1.842a1.359,1.359,0,0,0-.668.774,35.525,35.525,0,0,0-.972,3.434H35.88a1.364,1.364,0,1,0,0,2.727H46.8a36.249,36.249,0,0,0-.4,6.05H35.88a1.364,1.364,0,1,0,0,2.727H46.552a35.837,35.837,0,0,0,1.092,6.049H35.88a1.364,1.364,0,0,0,0,2.728Zm-10.725,0a1.364,1.364,0,1,1,1.366-1.364A1.364,1.364,0,0,1,25.155,73.08Z"/></svg>