<svg xmlns="http://www.w3.org/2000/svg" xmlns:xlink="http://www.w3.org/1999/xlink" version="1.1" x="0px" y="0px" viewBox="0 -5 66 82.5" style="enable-background:new 0 0 66 66;" xml:space="preserve"><path d="M42.47,39.74l-0.09-1.63c0.24-0.3,0.47-0.61,0.68-0.93h3.15c1.59,0,2.88-1.29,2.88-2.88v-2.35c0-0.07-0.02-0.13-0.04-0.19  c1.74-0.32,3.06-1.84,3.06-3.66v-1.48c0-0.01,0.01-0.02,0.01-0.03v-5.18c0-10.56-8.59-19.15-19.15-19.15s-19.15,8.59-19.15,19.15v4  v1.18v1.5c0,2.06,1.67,3.73,3.73,3.73h3.38c0.25,2.35,1.18,4.55,2.68,6.38l-0.08,1.53C13.95,40.65,6.55,48.69,6.55,58.4v2.11  c0,1.77,1.44,3.22,3.22,3.22h23.2c0.01,0,0.02,0.01,0.03,0.01c0.01,0,0.02-0.01,0.03-0.01h23.2c1.78,0,3.22-1.44,3.22-3.22V58.4  C59.45,48.69,52.05,40.65,42.47,39.74z M33,50.41l-4.95-8.83c1.53,0.68,3.19,1.04,4.91,1.04c1.79,0,3.48-0.4,5.01-1.1L33,50.41z   M25.22,40l2.9,5.18l-3.35,3.33L25.22,40z M40.78,40l0.45,8.51l-3.35-3.33L40.78,40z M47.39,34.31c0,0.65-0.53,1.17-1.17,1.17h-2.21  c0.51-1.14,0.86-2.36,1-3.65h2.41c-0.01,0.04-0.02,0.08-0.02,0.12V34.31z M37.01,16.06c-0.27-0.01-0.53,0.11-0.7,0.32l-1.79,2.27  c-0.05,0.07-0.11,0.13-0.17,0.19c-0.77,0.86-1.83,1.42-2.96,1.55c-0.17,0.02-0.35,0.03-0.53,0.03H21.7c-0.47,0-0.85,0.38-0.85,0.85  v0.41H20.1c-0.84-4.4,1.72-7.95,4.09-10.19c3.19-3.02,7.63-4.13,11.58-2.9c4.67,1.47,6.03,5.24,6.09,5.4  c0.1,0.29,0.34,0.5,0.64,0.56c0.77,0.15,1.46,0.57,1.97,1.19c0.5,0.61,0.77,1.35,0.77,2.16v3.04c0,0.24-0.01,0.49-0.03,0.74h-0.12  V20.1c0-0.33-0.19-0.62-0.48-0.76c-0.09-0.05-0.2-0.08-0.31-0.09c-1.21-0.1-4.34-0.66-6-2.12c-0.24-0.21-0.44-0.44-0.61-0.68  C37.54,16.21,37.29,16.07,37.01,16.06C37.01,16.06,37.01,16.06,37.01,16.06C37.01,16.06,37.01,16.06,37.01,16.06z M50.41,28.1  c0,1.12-0.91,2.03-2.03,2.03h-3.3V23.4h3.3c1.12,0,2.03,0.91,2.03,2.03V28.1z M32.97,3.97c9.62,0,17.45,7.83,17.45,17.45v0.88  c-0.59-0.38-1.28-0.61-2.03-0.61h-1.47c0.02-0.25,0.03-0.5,0.03-0.75v-3.04c0-1.19-0.41-2.35-1.16-3.24  c-0.65-0.8-1.53-1.38-2.5-1.67c-0.55-1.22-2.44-4.59-7.01-6.03c-4.54-1.41-9.62-0.15-13.26,3.29c-3.71,3.51-5.29,7.44-4.64,11.43  h-0.83c-0.75,0-1.44,0.23-2.03,0.61v-0.88C15.52,11.8,23.35,3.97,32.97,3.97z M15.52,28.1v-1.5v-1.18c0-1.12,0.91-2.03,2.03-2.03  h3.3v6.73h-3.3C16.43,30.13,15.52,29.22,15.52,28.1z M22.55,22.55C22.55,22.54,22.55,22.54,22.55,22.55l0-0.42h8.31  c0.5,0,0.99-0.06,1.46-0.17c1.22-0.29,2.33-0.93,3.2-1.87c0.11-0.12,0.23-0.24,0.34-0.38l1.15-1.46c0.02,0.01,0.03,0.03,0.05,0.04  c1.85,1.72,4.89,2.35,6.32,2.56v1.69v7.97c0,1.8-0.46,3.49-1.27,4.97h-4.38c-0.38-1.35-1.6-2.35-3.07-2.35c-1.77,0-3.2,1.44-3.2,3.2  c0,1.77,1.44,3.2,3.2,3.2c1.47,0,2.7-1,3.07-2.35h3.21c-1.91,2.28-4.78,3.74-7.99,3.74c-2.78,0-5.4-1.08-7.36-3.05  c-1.96-1.96-3.05-4.58-3.05-7.36V22.55z M36.16,36.33c0,0.83-0.67,1.5-1.5,1.5s-1.5-0.67-1.5-1.5s0.67-1.5,1.5-1.5  S36.16,35.51,36.16,36.33z M8.25,60.51V58.4c0-8.74,6.6-15.99,15.18-16.93l-0.41,7.83c-0.03,0.57,0.29,1.09,0.81,1.33  c0.18,0.08,0.37,0.12,0.56,0.12c0.35,0,0.7-0.14,0.96-0.4l3.63-3.61l3.16,5.64v9.65H9.76C8.93,62.02,8.25,61.34,8.25,60.51z   M57.75,60.51c0,0.84-0.68,1.52-1.52,1.52H33.85v-9.65l3.17-5.65l3.62,3.61c0.26,0.26,0.61,0.4,0.96,0.4c0.19,0,0.38-0.04,0.56-0.12  c0.52-0.23,0.84-0.75,0.81-1.33l-0.41-7.83c8.59,0.94,15.19,8.2,15.19,16.93V60.51z"/><path d="M36.34,52.07c-0.47,0-0.85,0.38-0.85,0.85v1.16c0,0.47,0.38,0.85,0.85,0.85s0.85-0.38,0.85-0.85v-1.16  C37.19,52.45,36.81,52.07,36.34,52.07z"/><path d="M36.34,57.05c-0.47,0-0.85,0.38-0.85,0.85v1.16c0,0.47,0.38,0.85,0.85,0.85s0.85-0.38,0.85-0.85V57.9  C37.19,57.43,36.81,57.05,36.34,57.05z"/></svg>