<svg xmlns="http://www.w3.org/2000/svg" version="1.1" viewBox="-5.0 0.0 110.0 95.0">
 <path d="m83.578 60.32-5.2188-0.60156c-0.097656-0.015625-0.1875-0.074219-0.23828-0.16016l-2.1211-4.6367c-0.5-1.207-1.6758-1.9961-2.9805-2-0.63672 0.011719-1.2617 0.18359-1.8203 0.5v-2.6836c0.19922-5.6016-4.4609-8.9609-8.1992-11.66-0.80078-0.57812-1.6016-1.1602-2.3203-1.7383-0.57422-0.49219-1.4219-0.49219-2 0-2.4023 2.1133-5.4805 3.293-8.6797 3.3203-3.1875 0.007813-6.2695-1.168-8.6406-3.3008-0.56641-0.51953-1.4336-0.51953-2 0-0.76172 0.62109-1.6211 1.2383-2.5 1.8594-3.7383 2.6992-8.3789 6-8.3984 11.52v2.6836c-0.48047-0.27344-1.0312-0.39844-1.582-0.36328-1.3047 0.007812-2.4805 0.79688-2.9805 2l-2.1016 4.6406h0.003906c-0.058593 0.09375-0.15234 0.15234-0.26172 0.16016l-5.1992 0.60156c-1.2891 0.13281-2.375 1.0234-2.7617 2.2578-0.29688 1.2031 0.10156 2.4727 1.043 3.2812l4 3.4609c0.078125 0.070312 0.11328 0.17578 0.097656 0.27734l-1 5.0625c-0.21484 1.2305 0.30078 2.4766 1.3203 3.1992 1.0586 0.76953 2.4688 0.86328 3.6211 0.23828l4.5195-2.5c0.12109-0.058593 0.26172-0.058593 0.37891 0l4.6211 2.5c1.1523 0.64844 2.582 0.55469 3.6406-0.23828 1.0195-0.76562 1.4961-2.0547 1.2188-3.3008l-0.5-2.2617v0.003906c0.16016 0.50391 0.44922 0.96094 0.83984 1.3203l3.8008 3.4805v-0.003907c0.039062 0.078125 0.039062 0.16797 0 0.24219l-1.1211 5c-0.28906 1.2461 0.19141 2.543 1.2227 3.3008 0.57031 0.44141 1.2734 0.67969 2 0.67969 0.60156 0 1.1953-0.16016 1.7188-0.46094l4.6211-2.5c0.10938-0.058594 0.24609-0.058594 0.35938 0l4.5391 2.5c1.1484 0.63281 2.5625 0.53906 3.6211-0.23828 1.0391-0.73828 1.5547-2.0117 1.3203-3.2617l-0.94141-5.0195c-0.007812-0.10938 0.035157-0.21484 0.12109-0.28125l4-3.4609c0.42578-0.39062 0.74219-0.88672 0.91797-1.4375l-0.51953 2.3594c-0.3125 1.2422 0.13281 2.5508 1.1406 3.3398 1.0547 0.80078 2.4844 0.90234 3.6406 0.26172l4.6211-2.5c0.10938-0.0625 0.24609-0.0625 0.35938 0l4.5391 2.5c1.1562 0.61719 2.5664 0.51562 3.6211-0.26172 1.0469-0.73828 1.5625-2.0234 1.3203-3.2812l-0.92188-5c-0.042969-0.085938-0.042969-0.19141 0-0.27734l4-3.4609c0.98047-0.85938 1.3555-2.2188 0.96094-3.4609-0.40234-1.207-1.4727-2.0664-2.7422-2.1992zm-50.578 10 1.1016 5c0.054688 0.078126 0.054688 0.18359 0 0.25781-0.12891 0.085937-0.29297 0.085937-0.42187 0l-4.6211-2.5c-0.5-0.25781-1.0547-0.39844-1.6172-0.39844-0.56641 0.003906-1.125 0.14844-1.6211 0.42187l-4.6211 2.5586c-0.11719 0.085938-0.28125 0.085938-0.39844 0-0.10938-0.058594-0.16406-0.17969-0.14062-0.30078l0.94141-5.0195c0.19922-1.1367-0.21094-2.3008-1.082-3.0586l-3.8984-3.5c-0.10156-0.054688-0.14453-0.17578-0.10156-0.28125 0.019531-0.11719 0.12109-0.20312 0.24219-0.19922l5.1992-0.60156c1.1719-0.15234 2.1758-0.91406 2.6406-2l2.1211-4.6406c0-0.12109 0.14062-0.16016 0.28125-0.16016h-0.003906c0.14844-0.007813 0.28906 0.070312 0.35938 0.20312l2.2812 4.6406v-0.003907c0.50781 1.0391 1.5117 1.7383 2.6602 1.8633l5.2188 0.60156v-0.003906c0.14453 0.007812 0.27344 0.10156 0.32031 0.24219 0.058594 0.074219 0.058594 0.17969 0 0.25781l-3.8398 3.582c-0.87109 0.77344-1.2539 1.9609-1 3.0977zm27.559 1.1992-4 3.4609c-0.87109 0.76562-1.2773 1.9375-1.0586 3.0781l0.94141 5c0.011719 0.12109-0.042968 0.23438-0.14062 0.30078-0.12891 0.085937-0.29297 0.085937-0.42188 0l-4.5391-2.5c-1.0039-0.55078-2.2188-0.55078-3.2188 0l-4.6406 2.5c-0.12109 0.085937-0.28125 0.085937-0.40234 0-0.039063-0.074219-0.039063-0.16406 0-0.23828l1.1211-5.0195c0.25781-1.1367-0.11719-2.3203-0.98047-3.1016l-3.7812-3.4805h0.003906c-0.058594-0.078125-0.058594-0.18359 0-0.25781 0.042969-0.14453 0.17188-0.23828 0.32031-0.24219l5.2188-0.60156v0.003906c1.1445-0.12891 2.1484-0.82812 2.6602-1.8633l2.1797-4.5586c0.058594-0.13281 0.19531-0.21094 0.33984-0.19922 0.16016 0 0.23828 0 0.30078 0.16016l2.1211 4.6406h-0.003906c0.45703 1.0859 1.4531 1.8477 2.6211 2l5.1992 0.60156v-0.003906c0.11719 0.007812 0.21875 0.082031 0.25391 0.19531 0.039062 0.10938 0 0.23438-0.09375 0.30469zm3.0391 0.28125h0.003906c0.11719-0.48828 0.11719-0.99609 0-1.4805-0.39062-1.2461-1.4844-2.1406-2.7812-2.2812l-5.1992-0.60156v0.003906c-0.10156-0.015625-0.1875-0.074218-0.24219-0.16016l-2.1211-4.6406h0.003907c-0.50391-1.1953-1.6641-1.9805-2.9609-2-1.2891-0.003906-2.4688 0.72266-3.0391 1.8789l-2.2812 4.6406c-0.070313 0.10547-0.17578 0.17578-0.30078 0.19922l-5.2188 0.60156c-1.3164 0.14453-2.4258 1.043-2.8398 2.3008-0.10156 0.45312-0.10156 0.92188 0 1.3789l-0.46094-2c-0.035156-0.070313-0.035156-0.15234 0-0.21875l3.6406-3.4219c0.93359-0.86328 1.2773-2.1914 0.87891-3.3984-0.39844-1.2617-1.5039-2.1641-2.8203-2.3008l-5.2188-0.60156c-0.12891-0.011719-0.24219-0.085938-0.30078-0.19922l-0.80078-1.6016v-7.2188c0-4 3.6406-6.5391 7.1602-9.0781l1.6602-1.1992v-0.003906c2.7656 2.1211 6.1562 3.2695 9.6406 3.2617 3.5117 0 6.9258-1.1367 9.7383-3.2383l1.5 1.0781c3.4805 2.5195 7.1016 5.1406 6.9609 9.1797v7.7188l-0.55859 1.1211c-0.0625 0.11328-0.17188 0.1875-0.30078 0.19922l-5.2188 0.60156c-1.3164 0.13672-2.4219 1.0391-2.8203 2.3008-0.38672 1.2031-0.035156 2.5234 0.89844 3.3789l3.8008 3.4805c0.035156 0.074219 0.035156 0.16406 0 0.23828zm19.781-8-3.8984 3.4805c-0.87109 0.75781-1.2812 1.9219-1.082 3.0586l0.94141 5.0195c0.023437 0.12109-0.03125 0.24219-0.14062 0.30078-0.11719 0.085938-0.28125 0.085938-0.39844 0l-4.5391-2.4805c-0.49609-0.27344-1.0547-0.41797-1.6211-0.41797s-1.1211 0.13672-1.6211 0.39844l-4.6211 2.5c-0.125 0.085938-0.29297 0.085938-0.41797 0-0.058594-0.078125-0.058594-0.18359 0-0.26172l1.1016-5h-0.003906c0.24219-1.1562-0.17188-2.3555-1.0781-3.1172l-3.7617-3.4805c-0.054687-0.078125-0.054687-0.18359 0-0.26172 0.050781-0.13672 0.17578-0.23047 0.32031-0.23828l5.2188-0.60156h0.003906c1.1445-0.12109 2.1484-0.82422 2.6602-1.8594l2.2812-4.6406h-0.003906c0.066406-0.12891 0.19922-0.20703 0.33984-0.19922 0.16016 0 0.26172 0 0.30078 0.16016l2.0391 4.6406c0.46094 1.082 1.457 1.8398 2.6211 2l5.1992 0.60156v-0.003906c0.125 0 0.23438 0.082031 0.26172 0.20312 0 0.070313-0.039063 0.14063-0.10156 0.17969z"/>
 <path d="m50.5 13.5c-6.6289 0.042969-12.012 5.3711-12.121 12-0.0625 3.1719 1.1562 6.2383 3.3828 8.5 2.2031 2.25 5.2266 3.5156 8.3789 3.5 6.6211-0.0625 11.988-5.3789 12.121-12 0.0625-3.1719-1.1562-6.2383-3.3828-8.5-2.2031-2.25-5.2266-3.5156-8.3789-3.5zm-0.35938 21.039c-2.3672 0.007813-4.6367-0.94531-6.2891-2.6445-1.6484-1.6953-2.543-3.9883-2.4727-6.3555 0.085938-4.9883 4.1328-8.9961 9.1211-9.0391 2.3438-0.007812 4.5938 0.92969 6.2383 2.6016 1.6641 1.707 2.5742 4.0117 2.5234 6.3984-0.089844 4.9883-4.1328 8.9961-9.1211 9.0391z"/>
 <path d="m39.719 51.738c-0.82422 0-1.4961 0.65625-1.5195 1.4805v5.0195c-0.003907 0.39844 0.14844 0.78516 0.42578 1.0664 0.27734 0.28516 0.65625 0.44922 1.0547 0.45703 0.39453 0.003906 0.76953-0.14844 1.0508-0.42188 0.28516-0.27344 0.44531-0.64844 0.44922-1.0391v-5.0391c0.011718-0.82422-0.64063-1.5-1.4609-1.5234z"/>
 <path d="m59.879 59.762c0.39453 0.003906 0.77344-0.14844 1.0547-0.42188 0.28125-0.27344 0.44141-0.64844 0.44531-1.0391v-5.0391c0.007813-0.39844-0.14844-0.78516-0.42578-1.0664-0.27734-0.28516-0.65625-0.44922-1.0547-0.45703-0.82031 0-1.4883 0.66016-1.5 1.4805v5.0195c-0.003907 0.39844 0.14844 0.78516 0.42578 1.0664 0.27734 0.28516 0.65625 0.44922 1.0547 0.45703z"/>
</svg>