<svg xmlns="http://www.w3.org/2000/svg" data-name="Layer 1" viewBox="-75.0 110.0 1650.0 1225.0" x="0px" y="0px"><path d="M557,1151.25H410.42a13.74,13.74,0,0,1-13.74-13.74V910.41a13.74,13.74,0,0,1,13.74-13.74H557a13.74,13.74,0,0,1,13.74,13.74v227.1A13.74,13.74,0,0,1,557,1151.25Zm-132.82-27.47H543.24V924.14H424.16Z"/><path d="M830.09,1151.25H683.53a13.74,13.74,0,0,1-13.74-13.74V784.39a13.74,13.74,0,0,1,13.74-13.74H830.09a13.74,13.74,0,0,1,13.73,13.74v353.12A13.74,13.74,0,0,1,830.09,1151.25Zm-132.82-27.47H816.35V798.12H697.27Z"/><path d="M1103.2,1151.25H956.64a13.74,13.74,0,0,1-13.74-13.74V669.83a13.74,13.74,0,0,1,13.74-13.74H1103.2a13.74,13.74,0,0,1,13.73,13.74v467.68A13.74,13.74,0,0,1,1103.2,1151.25Zm-132.83-27.47h119.09V683.56H970.37Z"/><path d="M1170.23,1151.25H329.77a13.74,13.74,0,0,1,0-27.47h840.46a13.74,13.74,0,0,1,0,27.47Z"/><path d="M451.63,798.13a13.74,13.74,0,0,1-7.58-25.21l595.28-392.69a13.74,13.74,0,1,1,15.13,22.93L459.18,795.85A13.67,13.67,0,0,1,451.63,798.13Z"/><path d="M1033.51,522.12a12.23,12.23,0,0,1-1.59-.1,13.74,13.74,0,0,1-12.08-15.21l11.84-103-103-11.83a13.74,13.74,0,0,1,3.14-27.3L1048.46,378a13.74,13.74,0,0,1,12.08,15.22l-13.4,116.68A13.75,13.75,0,0,1,1033.51,522.12Z"/><path d="M483.7,514.46a63.21,63.21,0,1,1,63.2-63.2,13.74,13.74,0,0,1-27.47,0A35.73,35.73,0,1,0,483.7,487a13.74,13.74,0,1,1,0,27.47Z"/><path d="M483.7,613.4a63.28,63.28,0,0,1-63.2-63.21,13.74,13.74,0,1,1,27.47,0,35.73,35.73,0,1,0,35.73-35.73,13.74,13.74,0,1,1,0-27.47,63.21,63.21,0,0,1,0,126.41Z"/><path d="M483.7,415.52A13.74,13.74,0,0,1,470,401.79v-39.3a13.74,13.74,0,0,1,27.48,0v39.3A13.74,13.74,0,0,1,483.7,415.52Z"/><path d="M483.7,652.7A13.74,13.74,0,0,1,470,639v-39.3a13.74,13.74,0,0,1,27.48,0V639A13.74,13.74,0,0,1,483.7,652.7Z"/></svg>