<svg xmlns="http://www.w3.org/2000/svg" xmlns:xlink="http://www.w3.org/1999/xlink" version="1.1" x="0px" y="0px" viewBox="-3.2 -6.4 60.4 86.4" enable-background="new 0 0 64 64" xml:space="preserve"><path d="M55.771,43.863c-0.104-0.25-2.545-5.887-9.697-6.321V20.586L31.487,6H8.073v52h38v-1v-1v-5.042  c7.216-0.432,9.602-6.083,9.703-6.334l0.15-0.383L55.771,43.863z M42.927,48.775c-3.955-0.787-5.888-3.479-6.497-4.524  c0.611-1.047,2.544-3.739,6.497-4.525c-1.695,0.808-2.878,2.525-2.878,4.524S41.231,47.966,42.927,48.775z M45.073,47.275  c-1.668,0-3.024-1.357-3.024-3.025s1.356-3.025,3.024-3.025s3.025,1.357,3.025,3.025S46.741,47.275,45.073,47.275z M32.073,9.414  L42.659,20H32.073V9.414z M10.073,56V8h20v14h14v15.555c-6.957,0.551-9.568,6.027-9.669,6.249l-0.212,0.424l0.194,0.432  c0.11,0.246,2.677,5.736,9.687,6.285V56H10.073z M47.077,48.853c1.775-0.776,3.021-2.544,3.021-4.603s-1.246-3.827-3.022-4.603  c4.165,0.672,6.063,3.493,6.662,4.607C53.179,45.306,51.289,48.174,47.077,48.853z"/></svg>